<svg viewBox="0 0 217 32" fill="none" xmlns="http://www.w3.org/2000/svg">
<path d="M27.9676 7.06182C28.6843 6.5176 28.83 5.48844 28.213 4.83337C26.9661 3.5095 25.4911 2.41411 23.8543 1.602C21.7296 0.547852 19.3899 -0.000444028 17.0181 -3.54956e-06C14.6463 0.000436929 12.3068 0.549602 10.1825 1.60453C8.54599 2.41726 7.07141 3.51319 5.825 4.83753C5.20826 5.49283 5.35432 6.52193 6.07117 7.06589C6.78803 7.60985 7.80311 7.4603 8.43827 6.82285C9.36784 5.88993 10.4459 5.11218 11.632 4.52318C13.306 3.69184 15.1496 3.25908 17.0187 3.25873C18.8878 3.25838 20.7316 3.69046 22.4059 4.52118C23.5922 5.10974 24.6705 5.88709 25.6005 6.81966C26.2359 7.45687 27.251 7.60605 27.9676 7.06182Z" fill="#14A8D1"/>
<path d="M1.81986 7.73074L16.3177 18.3125C16.6846 18.5803 17.1828 18.5796 17.549 18.3108L31.9612 7.73074" stroke="black" stroke-width="3.64823" stroke-linecap="round"/>
<path d="M6.75355 22.5587C4.61709 21.1728 4.29915 16.4631 4.41649 14.0667C4.42175 13.9593 4.37832 13.8566 4.29741 13.7858L2.02891 11.8008C1.84483 11.6398 1.55703 11.7146 1.48659 11.9489C0.773033 14.3216 0.99494 16.8637 1.21177 17.8937C1.97616 23.3139 5.58386 27.1011 7.29215 28.3172C11.2531 31.7222 16.9918 31.7627 19.366 31.3574C26.3845 30.6625 30.3397 25.5666 31.4399 23.1054C33.8791 18.4838 33.3438 13.9511 32.6546 11.8488C32.5789 11.618 32.2928 11.5563 32.1154 11.7222L29.9189 13.777C29.8377 13.853 29.7982 13.965 29.8108 14.0755C30.3348 18.6797 28.6391 21.4931 27.5549 22.5016C27.4417 22.6069 27.2711 22.609 27.1456 22.5188L22.6164 19.2609C22.4917 19.1712 22.3229 19.1741 22.2013 19.2679L19.7249 21.1782C19.5439 21.3179 19.5447 21.5912 19.7265 21.7297L24.506 25.3712C24.6789 25.5029 24.6899 25.7595 24.5211 25.8964C22.3036 27.696 19.1554 28.262 17.8025 28.3172C13.2765 28.1286 10.7313 26.7412 9.79394 25.878C9.65148 25.7468 9.67421 25.5256 9.82542 25.4046L14.4121 21.7352C14.5895 21.5933 14.5852 21.3222 14.4035 21.186L11.845 19.2671C11.7209 19.174 11.5501 19.1745 11.4265 19.2683L7.12135 22.537C7.01362 22.6188 6.86702 22.6323 6.75355 22.5587Z" fill="#14A8D1"/>
<path d="M46.3192 10.6636V7.19504H63.3676L62.3166 10.6636H56.2203V23.5077H52.3314V10.6636H46.3192ZM69.0431 17.0961V20.0392H80.9413L79.8902 23.5077H65.1541V7.19504H80.9413L79.8902 10.6636H69.0431V13.6276H79.1544V17.0961H69.0431ZM99.7193 7.19504H103.608V23.5077H99.7193V14.1321L94.7583 22.9822H92.1516L87.1906 14.4895V23.5077H83.3016V7.82568L87.1906 6.77461L93.497 18.3154L99.7193 7.19504ZM106.766 13.06L110.655 12.009V14.8889H118.244C119.421 14.8889 120.031 13.8168 120.031 12.7447C120.031 11.6936 119.442 10.6636 118.244 10.6636H106.766L107.817 7.19504H118.076C122.028 7.19504 124.13 10.096 124.13 12.9339C124.13 15.6667 122.196 18.3574 118.076 18.3574H110.655V23.5077H106.766V13.06Z" fill="black"/>
<path d="M149.065 15.1832V23.5077H138.596C133.95 23.5077 131.701 19.5346 131.701 15.4985C131.701 11.3783 134.055 7.19504 138.596 7.19504H148.014L149.065 10.6636H139.058C136.851 10.6636 135.8 12.9339 135.8 15.2463C135.8 17.6217 136.914 20.0392 139.058 20.0392H145.176V16.2343L149.065 15.1832ZM168.491 7.19504H172.38V23.5077H168.491V14.1321L163.53 22.9822H160.923L155.962 14.4895V23.5077H152.073V7.82568L155.962 6.77461L162.268 18.3154L168.491 7.19504ZM180.54 21.3215L181.97 18.0001H186.532L183.336 11.2312L177.661 23.5077H173.561L181.318 7.82568L185.207 6.77461L193.237 23.5077H189.138L188.108 21.3215H180.54ZM194.424 7.19504H198.313V23.5077H194.424V7.19504ZM201.465 7.19504H205.354V20.0392H216.832L215.781 23.5077H201.465V7.19504Z" fill="#14A8D1"/>
</svg>
