<svg width="50" height="56" viewBox="0 0 50 56" fill="none" xmlns="http://www.w3.org/2000/svg">
<g clip-path="url(#clip0_376_45)">
<path d="M0.288672 23.6826L0.288811 23.6823C0.298838 23.6571 0.309117 23.6321 0.319675 23.6072C0.326713 23.5891 0.33445 23.5716 0.341684 23.5536C0.349728 23.5353 0.357158 23.5167 0.365453 23.4985C0.646745 22.8288 1.08543 22.2627 1.62779 21.9494L1.78115 21.8608L20.4169 11.0974L39.0526 0.334016L39.2061 0.245363C39.7485 -0.0679366 40.2937 -0.0699476 40.7475 0.175285C40.7601 0.18115 40.7721 0.188189 40.7846 0.194418C40.7967 0.201428 40.8092 0.207545 40.8213 0.214947L43.2817 1.63366L41.8631 2.23546L46.7847 28.3287C46.9116 29.0018 46.7995 29.7435 46.5172 30.4126C46.5098 30.4316 46.5017 30.4499 46.494 30.4688C46.4864 30.4863 46.4793 30.5039 46.4714 30.5213C46.1901 31.1913 45.7514 31.7577 45.2088 32.071L8.04 53.5385L8.38232 55.1757L6.05175 53.8259C6.03968 53.8189 6.02731 53.8129 6.01541 53.8056C5.56072 53.5622 5.21824 53.0828 5.09124 52.4095L0.05193 25.6918C-0.0703232 25.0436 0.0291384 24.3319 0.288672 23.6826Z" fill="white"/>
<path d="M10.0479 55.1734L47.6262 33.4694C48.7626 32.813 49.452 31.0523 49.1661 29.5365L44.1987 3.19979C43.9128 1.68407 42.7598 0.987417 41.6234 1.64374L4.04518 23.3478C2.90881 24.0041 2.21937 25.7649 2.50527 27.2806L7.47274 53.6173C7.75861 55.1331 8.91156 55.8297 10.0479 55.1734Z" fill="url(#paint0_linear_376_45)"/>
<path d="M4.19861 23.2591L22.8343 12.4957L28.6738 43.4559L10.2014 55.0848C8.98026 55.79 7.77465 55.2183 7.50861 53.8078L2.4693 27.0901C2.20326 25.6796 2.9775 23.9644 4.19861 23.2591Z" fill="url(#paint1_linear_376_45)"/>
<path d="M41.47 1.73238L22.8343 12.4958L28.6371 43.2616L47.4727 33.558C48.6938 32.8528 49.4681 31.1376 49.202 29.7271L44.1627 3.00932C43.8967 1.59882 42.6911 1.02713 41.47 1.73238Z" fill="url(#paint2_linear_376_45)"/>
<path d="M48.9653 31.7362C48.6601 32.4998 48.1327 33.1768 47.4727 33.558L10.2014 55.0848C9.5414 55.466 8.88734 55.4714 8.38232 55.1756L25.0814 24.4092L48.9653 31.7362Z" fill="url(#paint3_linear_376_45)"/>
<path d="M2.70602 25.081C3.01125 24.3174 3.53867 23.6404 4.19862 23.2592L41.47 1.73243C42.1299 1.35126 42.784 1.34587 43.289 1.64155L26.59 32.408L2.70602 25.081Z" fill="url(#paint4_linear_376_45)"/>
</g>
<defs>
<linearGradient id="paint0_linear_376_45" x1="19.1256" y1="32.2842" x2="-22.5681" y2="56.3662" gradientUnits="userSpaceOnUse">
<stop stop-color="#7BDAFF"/>
<stop offset="1" stop-color="#59BDEF"/>
</linearGradient>
<linearGradient id="paint1_linear_376_45" x1="-18.105" y1="86.5421" x2="-7.11402" y2="47.2691" gradientUnits="userSpaceOnUse">
<stop offset="0.767705" stop-color="#59BDEF"/>
<stop offset="0.845232" stop-color="#54B8EB"/>
<stop offset="0.931782" stop-color="#48AAE1"/>
<stop offset="1" stop-color="#3A9BD5"/>
</linearGradient>
<linearGradient id="paint2_linear_376_45" x1="43.0598" y1="51.1644" x2="3.54967" y2="41.0609" gradientUnits="userSpaceOnUse">
<stop offset="0.767705" stop-color="#59BDEF"/>
<stop offset="0.845232" stop-color="#54B8EB"/>
<stop offset="0.931782" stop-color="#48AAE1"/>
<stop offset="1" stop-color="#3A9BD5"/>
</linearGradient>
<linearGradient id="paint3_linear_376_45" x1="21.0968" y1="83.8312" x2="-1.41832" y2="44.8503" gradientUnits="userSpaceOnUse">
<stop offset="0.767705" stop-color="#3A9BD5"/>
<stop offset="0.838634" stop-color="#3796D1"/>
<stop offset="0.917943" stop-color="#3088C8"/>
<stop offset="1" stop-color="#2573BA"/>
</linearGradient>
<linearGradient id="paint4_linear_376_45" x1="1.34671" y1="17.4805" x2="-25.7236" y2="56.9465" gradientUnits="userSpaceOnUse">
<stop stop-color="#7BDAFF"/>
<stop offset="1" stop-color="#59BDEF"/>
</linearGradient>
<clipPath id="clip0_376_45">
<rect width="49.2544" height="55.4205" fill="white"/>
</clipPath>
</defs>
</svg>
